#!OML:ASF H:\GeneralSubjects\Female5\Project 1\Capture day 1\Session 1\Female5.ASF
:FULLY-SPECIFIED
:DEGREES
795
root -7.68046 15.8711 1.75267 -169.914 2.87131 -180.057
lowerback 10.5956 0.981154 1.66667
upperback -8.96936 2.87008 3.63798
thorax -16.2308 1.71357 2.40642
lowerneck -16.2444 7.18906 8.23446
upperneck 28.5475 8.65626 -6.39075
head 12.9049 3.39004 -2.57548
rclavicle 5.06901e-015 -5.40694e-014
rhumerus -56.4717 15.0855 -75.3501
rradius 34.8896
rwrist -12.6476
rhand -27.5801 -18.202
rfingers 7.12502
rthumb -0.98041 -48.1795
lclavicle 5.06901e-015 -5.40694e-014
lhumerus -45.3856 7.05478 71.7899
lradius 29.6866
lwrist -8.27989
lhand -28.426 28.5949
lfingers 7.12502
lthumb -1.79738 58.5671
rfemur -5.88034 22.8146 -1.12504
rtibia 5.35649
rfoot -45.3739 -26.7549
rtoes 32.4048
lfemur -15.4415 -15.5568 -15.1059
ltibia 19.8001
lfoot -15.9827 -13.7435
ltoes -16.4261
796
root -7.91375 15.93 1.77099 -169.687 3.31588 -180.063
lowerback 10.6334 1.10634 1.33307
upperback -8.9753 2.97784 3.63642
thorax -16.2839 1.79924 2.56616
lowerneck -16.1679 5.39846 8.75315
upperneck 28.2439 9.08313 -6.91828
head 12.8194 4.7066 -2.54724
rclavicle 1.16289e-014 3.18055e-015
rhumerus -56.0905 14.6415 -75.3922
rradius 34.662
rwrist -11.9116
rhand -27.4343 -17.7917
rfingers 7.12502
rthumb -0.839589 -47.7698
lclavicle 1.16289e-014 3.18055e-015
lhumerus -45.1019 7.17427 71.2923
lradius 29.924
lwrist -8.3532
lhand -28.8457 28.3591
lfingers 7.12502
lthumb -2.20266 58.3275
rfemur -7.75961 18.6036 -0.401133
rtibia 7.31792
rfoot -40.7484 -27.5619
rtoes 30.1492
lfemur -15.2752 -16.6156 -16.1235
ltibia 19.2888
lfoot -17.0758 -13.8172
ltoes -15.1582
797
root -8.13643 15.9888 1.77679 -169.539 3.96785 -180.205
lowerback 10.5469 1.23247 0.867264
upperback -8.94598 3.03277 3.56277
thorax -16.2116 1.86445 2.73455
lowerneck -16.1155 5.41049 8.88825
upperneck 28.323 9.02632 -6.76606
head 12.834 4.71549 -2.52302
rclavicle 1.19271e-015 7.95139e-015
rhumerus -55.7483 14.4722 -75.6655
rradius 34.5566
rwrist -11.4719
rhand -27.5228 -17.4631
rfingers 7.12502
rthumb -0.925028 -47.4409
lclavicle 1.19271e-015 7.95139e-015
lhumerus -45.096 7.29953 70.5421
lradius 30.3897
lwrist -8.40159
lhand -29.4647 28.3776
lfingers 7.12502
lthumb -2.80048 58.3389
rfemur -9.66224 14.7023 0.684874
rtibia 9.75501
rfoot -38.7971 -26.7045
rtoes 26.5024
lfemur -14.7302 -16.2215 -17.2703
ltibia 18.1863
lfoot -17.0097 -13.6423
ltoes -13.8475
798
root -8.34363 16.0427 1.78718 -169.174 4.5769 -180.468
lowerback 10.2672 1.31143 0.365329
upperback -9.03453 3.01852 3.39345
thorax -16.1516 1.90127 2.83493
lowerneck -16.0589 5.43078 9.04147
upperneck 28.4744 8.99997 -6.61718
head 12.8816 4.74493 -2.4972
rclavicle -1.0138e-014 -4.6118e-014
rhumerus -55.6357 14.4108 -76.128
rradius 34.8005
rwrist -11.4569
rhand -27.6819 -17.6137
rfingers 7.12502
rthumb -1.07868 -47.5908
lclavicle -1.0138e-014 -4.6118e-014
lhumerus -45.2604 6.94469 69.7901
lradius 30.9237
lwrist -7.99045
lhand -29.6232 28.7552
lfingers 7.12502
lthumb -2.95358 58.7144
rfemur -11.8484 10.6075 2.04525
rtibia 12.537
rfoot -37.8634 -25.44
rtoes 21.5774
lfemur -14.5262 -16.2685 -18.508
ltibia 17.2835
lfoot -17.2278 -13.6112
ltoes -13.1752
799
root -8.53872 16.0963 1.78679 -169.022 5.2474 -180.573
lowerback 10.0681 1.42394 0.125134
upperback -9.0381 3.07851 3.18332
thorax -16.0262 1.93206 2.72294
lowerneck -16.0521 5.4079 9.33601
upperneck 28.6215 8.91131 -6.62384
head 12.9482 4.74166 -2.56492
rclavicle 1.59028e-014 2.70347e-014
rhumerus -55.6156 14.2825 -76.6774
rradius 35.1449
rwrist -11.7036
rhand -27.8198 -17.7714
rfingers 7.12502
rthumb -1.21184 -47.7477
lclavicle 1.59028e-014 2.70347e-014
lhumerus -45.257 6.66947 68.9814
lradius 31.1684
lwrist -7.46304
lhand -29.7542 29.5796
lfingers 7.12502
lthumb -3.08008 59.5371
rfemur -13.7869 6.66624 3.99351
rtibia 15.4282
rfoot -36.2919 -24.1825
rtoes 16.6253
lfemur -13.8638 -16.7325 -19.4305
ltibia 15.9822
lfoot -17.8944 -13.4546
ltoes -13.7674
800
root -8.71465 16.1451 1.79047 -168.945 5.87717 -180.479
lowerback 9.99773 1.48604 -0.0586597
upperback -9.01596 3.09372 3.05651
thorax -15.9541 1.94219 2.68233
lowerneck -16.0779 5.48756 9.66661
upperneck 28.8307 8.97112 -6.62139
head 13.0646 4.81025 -2.6082
rclavicle -5.1684e-015 -3.18055e-015
rhumerus -55.512 14.2255 -77.2276
rradius 35.3907
rwrist -11.8373
rhand -27.8202 -17.6859
rfingers 7.12502
rthumb -1.21223 -47.6622
lclavicle -5.1684e-015 -3.18055e-015
lhumerus -45.2917 7.08636 67.904
lradius 31.2906
lwrist -7.41249
lhand -30.4451 30.3642
lfingers 7.12502
lthumb -3.74731 60.311
rfemur -15.4638 3.3364 6.53479
rtibia 18.1944
rfoot -34.7406 -22.6697
rtoes 11.2476
lfemur -13.1493 -16.8719 -20.0285
ltibia 14.7256
lfoot -18.3353 -13.249
ltoes -14.9832
801
root -8.87616 16.1887 1.79767 -168.805 6.42814 -180.432
lowerback 9.90368 1.51692 -0.410592
upperback -9.03589 3.05241 2.9672
thorax -15.9283 1.95256 2.79252
lowerneck -16.1749 5.5726 9.87083
upperneck 29.0587 8.99833 -6.43016
head 13.1841 4.86956 -2.5607
rclavicle -1.02374e-014 1.74931e-014
rhumerus -55.3526 14.1503 -77.6046
rradius 35.6279
rwrist -12.036
rhand -27.6998 -17.5878
rfingers 7.12502
rthumb -1.09597 -47.5648
lclavicle -1.02374e-014 1.74931e-014
lhumerus -45.4393 7.51669 66.9009
lradius 31.4288
lwrist -7.53845
lhand -31.3329 30.6628
lfingers 7.12502
lthumb -4.6046 60.5927
rfemur -16.9893 0.665165 9.26142
rtibia 20.6455
rfoot -32.0736 -21.8085
rtoes 1.33317
lfemur -12.584 -16.9638 -20.6469
ltibia 13.5715
lfoot -18.5838 -13.0674
ltoes -14.97
802
root -9.02599 16.2251 1.80827 -168.593 6.84959 -180.52
lowerback 9.75818 1.49142 -0.876375
upperback -9.12159 2.9205 2.84551
thorax -15.948 1.93606 2.95208
lowerneck -16.0378 5.67666 10.0708
upperneck 29.0395 9.02676 -6.21316
head 13.1502 4.92975 -2.50851
rclavicle 8.84592e-015 -3.18055e-014
rhumerus -55.1774 13.9357 -77.7835
rradius 35.7934
rwrist -12.3156
rhand -27.6484 -17.35
rfingers 7.12502
rthumb -1.04636 -47.3272
lclavicle 8.84592e-015 -3.18055e-014
lhumerus -45.5574 7.60997 66.0979
lradius 31.4414
lwrist -7.30498
lhand -32.1853 30.8344
lfingers 7.12502
lthumb -5.42766 60.7449
rfemur -18.4485 -1.28592 11.9474
rtibia 22.7787
rfoot -27.9663 -21.2587
rtoes -12.4431
lfemur -12.2999 -16.8527 -21.3684
ltibia 12.6054
lfoot -18.4993 -12.9453
ltoes -14.2315
803
root -9.16711 16.2567 1.8171 -168.494 7.24391 -180.599
lowerback 9.74402 1.43936 -1.17348
upperback -9.20982 2.76967 2.6618
thorax -16.0399 1.88512 2.94784
lowerneck -15.7441 5.78874 10.3414
upperneck 28.9181 9.08913 -6.09197
head 13.0538 5.00428 -2.50379
rclavicle 2.08724e-015 3.97569e-015
rhumerus -55.0565 13.4052 -77.8359
rradius 35.8494
rwrist -12.1076
rhand -27.6456 -17.1084
rfingers 7.12502
rthumb -1.04366 -47.0856
lclavicle 2.08724e-015 3.97569e-015
lhumerus -45.7927 7.68728 65.2557
lradius 31.5179
lwrist -7.08739
lhand -32.5543 30.9515
lfingers 7.12502
lthumb -5.78393 60.8525
rfemur -19.7254 -2.46828 14.6152
rtibia 24.7032
rfoot -24.0954 -19.3938
rtoes -22.8634
lfemur -12.0018 -16.8935 -22.0557
ltibia 11.8279
lfoot -18.6895 -12.8804
ltoes -14.0683
804
root -9.29835 16.2816 1.81865 -168.486 7.63736 -180.503
lowerback 9.74715 1.39831 -1.32585
upperback -9.24858 2.66402 2.54029
thorax -16.0815 1.84185 2.92159
lowerneck -15.6479 5.86169 10.6326
upperneck 28.9288 9.11712 -6.07049
head 13.0572 5.0521 -2.54178
rclavicle 2.33572e-015 -2.38542e-014
rhumerus -55.0733 13.1358 -78.079
rradius 35.9572
rwrist -11.8739
rhand -27.8073 -17.0286
rfingers 7.12502
rthumb -1.19978 -47.005
lclavicle 2.33572e-015 -2.38542e-014
lhumerus -46.0734 7.71695 64.5917
lradius 31.6538
lwrist -7.03217
lhand -32.4294 31.3211
lfingers 7.12502
lthumb -5.66336 61.2255
rfemur -20.8347 -2.95919 17.3776
rtibia 26.5293
rfoot -21.4521 -16.0505
rtoes -29.3826
lfemur -11.5915 -17.1182 -22.5123
ltibia 11.1585
lfoot -19.0496 -12.9316
ltoes -14.1018
805
root -9.42068 16.2992 1.81383 -168.411 7.88203 -180.285
lowerback 9.61068 1.2973 -1.45213
upperback -9.29327 2.51339 2.56208
thorax -16.0443 1.79176 3.05548
lowerneck -15.4718 5.94468 10.8402
upperneck 28.8427 9.21199 -6.14517
head 13.0114 5.10801 -2.59395
rclavicle 2.13694e-015 1.74931e-014
rhumerus -55.2068 13.4915 -78.4757
rradius 36.1885
rwrist -12.2073
rhand -28.0758 -16.9386
rfingers 7.12502
rthumb -1.45912 -46.9133
lclavicle 2.13694e-015 1.74931e-014
lhumerus -46.3475 7.81607 64.1934
lradius 31.6179
lwrist -7.00163
lhand -32.5763 31.8794
lfingers 7.12502
lthumb -5.80515 61.7799
rfemur -21.7837 -3.30357 20.1885
rtibia 28.063
rfoot -19.264 -12.0897
rtoes -35.7497
lfemur -11.3227 -17.113 -22.784
ltibia 10.5645
lfoot -18.9712 -12.9559
ltoes -13.5495
